<svg id="Layer_1" data-name="Layer 1" xmlns="http://www.w3.org/2000/svg" viewBox="0 0 48 48"><defs><style>.cls-1,.cls-2{fill:#684287;}.cls-2,.cls-3{fill-rule:evenodd;}.cls-3{fill:#251c35;}</style></defs><title>wallkit logo sign</title><path class="cls-1" d="M24,0A24,24,0,1,1,7,7,23.93,23.93,0,0,1,24,0ZM39.16,8.84A21.44,21.44,0,1,0,45.44,24,21.37,21.37,0,0,0,39.16,8.84Z"/><polygon class="cls-2" points="22.53 22.44 20.45 18.08 18.37 22.44 17.28 24.47 15.93 17.65 11.63 17.65 14.15 30.35 18.45 30.35 20.45 26.6 22.44 30.35 26.75 30.35 22.53 22.44 22.53 22.44"/><polygon class="cls-3" points="24.97 17.65 29.27 17.65 28.72 20.39 31.48 17.65 36.37 17.65 30.33 23.65 33.9 30.35 29.59 30.35 27.6 26.6 27.56 26.26 26.75 30.35 22.44 30.35 24.97 17.65 24.97 17.65"/></svg>